<svg width="1293" height="650" viewBox="0 0 1293 650" fill="none"
  xmlns="http://www.w3.org/2000/svg">
  <circle cx="170.277" cy="539.94" r="1.176" transform="rotate(-90 170.277 539.94)" fill="#5F5F5F"/>
  <circle cx="253.161" cy="571.868" r="1.176" transform="rotate(-90 253.161 571.868)" fill="#5F5F5F"/>
  <circle cx="799.994" cy="343.561" r="1.176" transform="rotate(-90 799.994 343.561)" fill="#5F5F5F"/>
  <circle cx="882.878" cy="375.489" r="1.176" transform="rotate(-90 882.878 375.489)" fill="#5F5F5F"/>
  <circle cx="148.454" cy="240.123" r="1.176" transform="rotate(-15 148.454 240.123)" fill="#5F5F5F"/>
  <circle cx="231.338" cy="272.049" r="1.176" transform="rotate(-15 231.338 272.049)" fill="#5F5F5F"/>
  <circle cx="843.508" cy="257.815" r="1.176" transform="rotate(-15 843.508 257.815)" fill="#5F5F5F"/>
  <circle cx="926.392" cy="289.74" r="1.176" transform="rotate(-15 926.392 289.74)" fill="#5F5F5F"/>
  <circle cx="293.776" cy="224.83" r="1.176" transform="rotate(-90 293.776 224.83)" fill="#5F5F5F"/>
  <circle cx="376.661" cy="256.756" r="1.176" transform="rotate(-90 376.661 256.756)" fill="#5F5F5F"/>
  <circle cx="923.493" cy="28.4496" r="1.176" transform="rotate(-90 923.493 28.4496)" fill="#5F5F5F"/>
  <circle cx="1006.38" cy="60.3773" r="1.176" transform="rotate(-90 1006.38 60.3773)" fill="#5F5F5F"/>
  <circle cx="484.79" cy="277.858" r="1.176" transform="rotate(-15 484.79 277.858)" fill="#5F5F5F"/>
  <circle cx="567.674" cy="309.785" r="1.176" transform="rotate(-15 567.674 309.785)" fill="#5F5F5F"/>
  <circle cx="1179.84" cy="295.549" r="1.176" transform="rotate(-15 1179.84 295.549)" fill="#5F5F5F"/>
  <circle cx="1262.73" cy="327.477" r="1.176" transform="rotate(-15 1262.73 327.477)" fill="#5F5F5F"/>
  <circle cx="1.69968" cy="247.317" r="1.176" transform="rotate(-90 1.69968 247.317)" fill="#5F5F5F"/>
  <circle cx="631.417" cy="50.9379" r="1.176" transform="rotate(-90 631.417 50.9379)" fill="#5F5F5F"/>
  <circle cx="387.475" cy="1.55287" r="1.176" transform="rotate(-15 387.475 1.55287)" fill="#5F5F5F"/>
  <circle cx="1082.53" cy="19.2462" r="1.176" transform="rotate(-15 1082.53 19.2462)" fill="#5F5F5F"/>
  <circle cx="39.1621" cy="413.762" r="1.176" transform="rotate(-90 39.1621 413.762)" fill="#5F5F5F"/>
  <circle cx="668.879" cy="217.383" r="1.176" transform="rotate(-90 668.879 217.383)" fill="#5F5F5F"/>
  <circle cx="236.397" cy="80.8185" r="1.176" transform="rotate(-15 236.397 80.8185)" fill="#5F5F5F"/>
  <circle cx="931.451" cy="98.5099" r="1.176" transform="rotate(-15 931.451 98.5099)" fill="#5F5F5F"/>
  <circle cx="104.033" cy="645.127" r="1.176" transform="rotate(-90 104.033 645.127)" fill="#5F5F5F"/>
  <circle cx="733.75" cy="448.748" r="1.176" transform="rotate(-90 733.75 448.748)" fill="#5F5F5F"/>
  <circle cx="29.7052" cy="203.361" r="1.176" transform="rotate(-15 29.7052 203.361)" fill="#5F5F5F"/>
  <circle cx="724.759" cy="221.051" r="1.176" transform="rotate(-15 724.759 221.051)" fill="#5F5F5F"/>
  <circle cx="746.818" cy="40.9552" r="1.176" transform="rotate(-15 746.818 40.9552)" fill="#5F5F5F"/>
  <circle cx="760.604" cy="604.211" r="1.176" transform="rotate(-15 760.604 604.211)" fill="#5F5F5F"/>
  <circle cx="1240.36" cy="167.188" r="1.176" transform="rotate(-15 1240.36 167.188)" fill="#5F5F5F"/>
  <circle cx="1245.86" cy="462.031" r="1.176" transform="rotate(-15 1245.86 462.031)" fill="#5F5F5F"/>
  <circle cx="626.188" cy="617.158" r="1.176" transform="rotate(-15 626.188 617.158)" fill="#5F5F5F"/>
  <circle cx="368.154" cy="564.037" r="1.176" transform="rotate(-90 368.154 564.037)" fill="#5F5F5F"/>
  <circle cx="997.872" cy="367.657" r="1.176" transform="rotate(-90 997.872 367.657)" fill="#5F5F5F"/>
  <circle cx="176.392" cy="437.496" r="1.176" transform="rotate(-15 176.392 437.496)" fill="#5F5F5F"/>
  <circle cx="871.446" cy="455.188" r="1.176" transform="rotate(-15 871.446 455.188)" fill="#5F5F5F"/>
  <circle cx="429.163" cy="341.579" r="1.176" transform="rotate(-90 429.163 341.579)" fill="#5F5F5F"/>
  <circle cx="1058.88" cy="145.2" r="1.176" transform="rotate(-90 1058.88 145.2)" fill="#5F5F5F"/>
  <circle cx="407.06" cy="438.848" r="1.176" transform="rotate(-15 407.06 438.848)" fill="#5F5F5F"/>
  <circle cx="1102.11" cy="456.539" r="1.176" transform="rotate(-15 1102.11 456.539)" fill="#5F5F5F"/>
  <circle cx="329.871" cy="453.233" r="1.176" transform="rotate(-90 329.871 453.233)" fill="#5F5F5F"/>
  <circle cx="959.588" cy="256.854" r="1.176" transform="rotate(-90 959.588 256.854)" fill="#5F5F5F"/>
  <circle cx="273.511" cy="371.838" r="1.176" transform="rotate(-15 273.511 371.838)" fill="#5F5F5F"/>
  <circle cx="968.566" cy="389.529" r="1.176" transform="rotate(-15 968.566 389.529)" fill="#5F5F5F"/>
  <circle cx="536.61" cy="539.94" r="1.176" transform="rotate(-90 536.61 539.94)" fill="#5F5F5F"/>
  <circle cx="1166.33" cy="343.561" r="1.176" transform="rotate(-90 1166.33 343.561)" fill="#5F5F5F"/>
  <circle cx="243.268" cy="593.975" r="1.176" transform="rotate(-15 243.268 593.975)" fill="#5F5F5F"/>
  <circle cx="938.322" cy="611.666" r="1.176" transform="rotate(-15 938.322 611.666)" fill="#5F5F5F"/>
  <path d="M6.00171 607.1L7.84433 606.797C9.49238 606.525 10.7841 605.234 11.0555 603.586L11.359 601.743L11.6626 603.586C11.934 605.234 13.2257 606.525 14.8738 606.797L16.7164 607.1L14.8738 607.404C13.2257 607.675 11.934 608.967 11.6626 610.615L11.359 612.458L11.0555 610.615C10.7841 608.967 9.49238 607.675 7.84433 607.404L6.00171 607.1Z" fill="#B8B8B8"/>
  <path d="M132.486 192.102L134.328 191.799C135.976 191.527 137.268 190.236 137.539 188.588L137.843 186.745L138.146 188.588C138.418 190.236 139.71 191.527 141.358 191.799L143.2 192.102L141.358 192.406C139.71 192.677 138.418 193.969 138.146 195.617L137.843 197.46L137.539 195.617C137.268 193.969 135.976 192.677 134.328 192.406L132.486 192.102Z" fill="#B8B8B8"/>
  <path d="M318.198 308.276L320.041 307.973C321.689 307.701 322.98 306.409 323.252 304.761L323.555 302.919L323.859 304.761C324.13 306.409 325.422 307.701 327.07 307.973L328.913 308.276L327.07 308.58C325.422 308.851 324.13 310.143 323.859 311.791L323.555 313.633L323.252 311.791C322.98 310.143 321.689 308.851 320.041 308.58L318.198 308.276Z" fill="#B8B8B8"/>
  <path d="M454.283 634.68L456.126 634.377C457.774 634.105 459.065 632.814 459.337 631.166L459.64 629.323L459.944 631.166C460.215 632.814 461.507 634.105 463.155 634.377L464.998 634.68L463.155 634.984C461.507 635.255 460.215 636.547 459.944 638.195L459.64 640.038L459.337 638.195C459.065 636.547 457.774 635.255 456.126 634.984L454.283 634.68Z" fill="#B8B8B8"/>
  <path d="M624.748 116.38L626.59 116.076C628.238 115.805 629.53 114.513 629.802 112.865L630.105 111.022L630.409 112.865C630.68 114.513 631.972 115.805 633.62 116.076L635.462 116.38L633.62 116.683C631.972 116.955 630.68 118.246 630.409 119.894L630.105 121.737L629.802 119.894C629.53 118.246 628.238 116.955 626.59 116.683L624.748 116.38Z" fill="#B8B8B8"/>
  <path d="M30.4954 22.028L32.338 21.7245C33.986 21.4531 35.2777 20.1614 35.5492 18.5133L35.8527 16.6707L36.1562 18.5133C36.4277 20.1614 37.7194 21.4531 39.3674 21.7245L41.21 22.028L39.3674 22.3316C37.7194 22.603 36.4277 23.8947 36.1562 25.5428L35.8527 27.3854L35.5492 25.5428C35.2777 23.8947 33.986 22.603 32.338 22.3316L30.4954 22.028Z" fill="#B8B8B8"/>
  <path d="M80.8235 389.671L82.6661 389.367C84.3142 389.096 85.6059 387.804 85.8773 386.156L86.1808 384.313L86.4843 386.156C86.7558 387.804 88.0475 389.096 89.6955 389.367L91.5382 389.671L89.6955 389.974C88.0475 390.246 86.7558 391.537 86.4843 393.185L86.1808 395.028L85.8773 393.185C85.6059 391.537 84.3142 390.246 82.6661 389.974L80.8235 389.671Z" fill="#B8B8B8"/>
  <path d="M282.104 24.2683L283.946 23.9648C285.594 23.6933 286.886 22.4016 287.158 20.7536L287.461 18.9109L287.765 20.7536C288.036 22.4016 289.328 23.6933 290.976 23.9648L292.818 24.2683L290.976 24.5718C289.328 24.8432 288.036 26.1349 287.765 27.783L287.461 29.6256L287.158 27.783C286.886 26.1349 285.594 24.8432 283.946 24.5718L282.104 24.2683Z" fill="#B8B8B8"/>
  <path d="M660.213 582.669L662.055 582.365C663.703 582.094 664.995 580.802 665.266 579.154L665.57 577.311L665.873 579.154C666.145 580.802 667.437 582.094 669.085 582.365L670.927 582.669L669.085 582.972C667.437 583.244 666.145 584.535 665.873 586.183L665.57 588.026L665.266 586.183C664.995 584.535 663.703 583.244 662.055 582.972L660.213 582.669Z" fill="#B8B8B8"/>
  <path d="M885.753 108.887L887.595 108.584C889.243 108.312 890.535 107.021 890.807 105.373L891.11 103.53L891.414 105.373C891.685 107.021 892.977 108.312 894.625 108.584L896.467 108.887L894.625 109.191C892.977 109.462 891.685 110.754 891.414 112.402L891.11 114.245L890.807 112.402C890.535 110.754 889.243 109.462 887.595 109.191L885.753 108.887Z" fill="#B8B8B8"/>
  <path d="M1088.44 533.516L1090.28 533.213C1091.93 532.941 1093.22 531.65 1093.49 530.002L1093.8 528.159L1094.1 530.002C1094.37 531.65 1095.66 532.941 1097.31 533.213L1099.15 533.516L1097.31 533.82C1095.66 534.091 1094.37 535.383 1094.1 537.031L1093.8 538.874L1093.49 537.031C1093.22 535.383 1091.93 534.091 1090.28 533.82L1088.44 533.516Z" fill="#B8B8B8"/>
  <path d="M1281.81 34.7663L1283.65 34.4628C1285.3 34.1914 1286.59 32.8997 1286.86 31.2516L1287.16 29.409L1287.47 31.2516C1287.74 32.8997 1289.03 34.1914 1290.68 34.4628L1292.52 34.7663L1290.68 35.0698C1289.03 35.3413 1287.74 36.633 1287.47 38.281L1287.16 40.1237L1286.86 38.281C1286.59 36.633 1285.3 35.3413 1283.65 35.0698L1281.81 34.7663Z" fill="#B8B8B8"/>
  <path d="M1259.29 643.952L1261.13 643.648C1262.78 643.377 1264.07 642.085 1264.34 640.437L1264.65 638.595L1264.95 640.437C1265.22 642.085 1266.51 643.377 1268.16 643.648L1270.01 643.952L1268.16 644.255C1266.51 644.527 1265.22 645.819 1264.95 647.467L1264.65 649.309L1264.34 647.467C1264.07 645.819 1262.78 644.527 1261.13 644.255L1259.29 643.952Z" fill="#B8B8B8"/>
  <path d="M660.213 397.161L662.055 396.857C663.703 396.586 664.995 395.294 665.266 393.646L665.57 391.804L665.873 393.646C666.145 395.294 667.437 396.586 669.085 396.857L670.927 397.161L669.085 397.464C667.437 397.736 666.145 399.028 665.873 400.676L665.57 402.518L665.266 400.676C664.995 399.028 663.703 397.736 662.055 397.464L660.213 397.161Z" fill="#B8B8B8"/>
</svg>
